<?xml version="1.0" encoding="utf-8"?><svg xmlns="http://www.w3.org/2000/svg" xmlns:xlink="http://www.w3.org/1999/xlink"><symbol fill="none" viewBox="0 0 21 16" id="icon-arrow" xmlns="http://www.w3.org/2000/svg"><path d="M12.204 2.795a1.125 1.125 0 011.591-1.59l6 6c.44.439.44 1.151 0 1.59l-6 6a1.125 1.125 0 01-1.59-1.59l4.079-4.08H1.75a1.125 1.125 0 010-2.25h14.534l-4.08-4.08z" fill="#FFD84E"/></symbol><symbol fill="none" viewBox="0 0 194 35" id="icon-footer-logo" xmlns="http://www.w3.org/2000/svg"><path d="M6.123 29.159H2.42c.06.331.208.602.443.813.242.203.583.305 1.022.305.318 0 .618-.06.898-.18.28-.129.504-.306.67-.532.508.249 1.182.516 2.022.802-.234.527-.662.95-1.283 1.265-.614.31-1.417.463-2.409.463-1.287 0-2.242-.293-2.863-.88C.307 30.62 0 29.84 0 28.877c0-.942.307-1.706.92-2.293.614-.588 1.568-.881 2.863-.881.773 0 1.443.128 2.011.384.568.256 1.003.613 1.306 1.073.303.451.455.971.455 1.558 0 .196-.008.343-.023.44H6.123zm-2.18-1.75c-.38 0-.69.07-.932.214a1.17 1.17 0 00-.512.587H5.18a1.203 1.203 0 00-.443-.576c-.204-.15-.47-.226-.795-.226zm13.344 2.518v4.258h-2.352v-2.203h-6.59c.039-.858.057-1.886.057-3.083 0-1.197-.018-2.225-.056-3.083h2.34v4.11h.875v-4.11h2.01v4.11h.864v-4.11h2.34A75.752 75.752 0 0016.72 29v.926h.567zm6.92-.768h-3.703c.06.331.208.602.443.813.242.203.583.305 1.022.305.318 0 .617-.06.898-.18.28-.129.503-.306.67-.532.508.249 1.181.516 2.022.802-.235.527-.663.95-1.284 1.265-.613.31-1.416.463-2.408.463-1.288 0-2.242-.293-2.863-.88-.613-.595-.92-1.375-.92-2.338 0-.942.307-1.706.92-2.293.614-.588 1.568-.881 2.863-.881.773 0 1.443.128 2.01.384.569.256 1.004.613 1.307 1.073.303.451.455.971.455 1.558 0 .196-.008.343-.023.44h-1.409zm-2.18-1.75c-.38 0-.69.07-.933.214a1.17 1.17 0 00-.51.587h2.68a1.203 1.203 0 00-.443-.576c-.204-.15-.47-.226-.795-.226zm-1.069-2.023a.714.714 0 01-.522-.214.706.706 0 01-.216-.52c0-.196.072-.365.216-.508a.714.714 0 01.522-.215.7.7 0 01.511.215.693.693 0 01.216.508.706.706 0 01-.216.52.7.7 0 01-.51.214zm1.83 0a.714.714 0 01-.523-.214.706.706 0 01-.216-.52c0-.196.072-.365.216-.508a.714.714 0 01.522-.215c.197 0 .368.072.512.215a.693.693 0 01.215.508.706.706 0 01-.215.52.7.7 0 01-.512.214z" fill="#fff"/><path d="M20.193 11.71c1.185.953 2.094 2.025 2.727 3.216.632 1.19 1.225 2.62 1.778 4.287.553 1.455.948 2.408 1.185 2.858H16.36c-.08-.185-.237-.768-.474-1.747-.211-.979-.422-1.76-.633-2.342a4.396 4.396 0 00-.948-1.588c-.659-.714-1.396-1.177-2.213-1.389-.817-.212-2.029-.318-3.635-.318v7.384H0c.132-3.017.198-6.63.198-10.837C.198 7.026.132 3.414 0 .397h8.457v7.78h.158c3.135-3.149 5.413-5.742 6.836-7.78h10.432l-9.246 9.25c1.37.581 2.555 1.27 3.556 2.063zM53.873.397l-.908 2.302A365.309 365.309 0 0145.1 22.071c-1.423 3.175-3.478 5.716-6.165 7.621-2.687 1.932-6.06 2.858-10.116 2.78-.5-2.197-.922-3.918-1.265-5.161a26.639 26.639 0 00-1.264-3.692c1.449.344 2.805.516 4.07.516 2.055 0 3.688-.437 4.9-1.31a179.793 179.793 0 00-3.359-9.13C30.611 10.44 28.74 6.007 26.29.397h9.365a67.513 67.513 0 001.304 4.605 226.852 226.852 0 001.66 5.041c.158.503.408 1.27.75 2.302.37 1.006.66 1.853.87 2.54l1.028-3.135c1.975-5.743 3.148-9.527 3.517-11.353h9.088zm8.04 10.837c.052 1.35.474 2.434 1.264 3.255.817.82 2.015 1.23 3.596 1.23.87 0 1.647-.158 2.332-.476.684-.344 1.317-.847 1.896-1.508 2.24.873 4.86 1.627 7.864 2.262-.87 2.038-2.344 3.626-4.426 4.764-2.055 1.138-4.728 1.707-8.022 1.707-4.4 0-7.653-1.032-9.76-3.096-2.108-2.065-3.161-4.777-3.161-8.138 0-3.361 1.053-6.074 3.16-8.138C58.765 1.032 62.019 0 66.418 0c3.293 0 5.967.569 8.022 1.707 2.082 1.138 3.557 2.726 4.426 4.763-2.344.503-4.966 1.257-7.864 2.263-.58-.662-1.212-1.151-1.896-1.469-.685-.344-1.463-.516-2.332-.516-1.58 0-2.78.41-3.596 1.23-.79.821-1.212 1.906-1.264 3.256zM94.95 22.468c-4.505 0-7.825-1.032-9.959-3.096-2.107-2.091-3.16-4.83-3.16-8.217 0-3.308 1.053-5.995 3.16-8.059C87.125 1.032 90.445 0 94.95 0c3.03 0 5.558.503 7.587 1.508 2.055.98 3.569 2.316 4.544 4.01.975 1.667 1.462 3.546 1.462 5.637 0 3.413-1.133 6.152-3.398 8.217-2.239 2.064-5.638 3.096-10.195 3.096zm.158-6.748c1.712 0 2.99-.41 3.833-1.231.843-.82 1.264-1.919 1.264-3.295 0-1.297-.421-2.355-1.264-3.175-.843-.847-2.12-1.27-3.833-1.27s-2.964.41-3.754 1.23c-.79.82-1.186 1.892-1.186 3.215 0 1.376.395 2.474 1.186 3.295.79.82 2.041 1.23 3.754 1.23zM135.546.397c-.132 2.964-.198 6.563-.198 10.797 0 4.208.066 7.807.198 10.797h-8.654l.079-4.326a12.457 12.457 0 01-6.481 1.786c-3.029 0-5.229-.887-6.599-2.66-1.344-1.8-2.015-4.141-2.015-7.026v-2.58c0-3.096-.053-5.359-.158-6.788h8.219c-.132 3.255-.198 5.98-.198 8.177 0 1.482.277 2.567.83 3.255.58.662 1.502.993 2.766.993a4.5 4.5 0 001.897-.437 6.88 6.88 0 001.778-1.23c0-5.637-.039-9.223-.118-10.758h8.654zm24.446 11.75h-12.883c.211 1.164.725 2.117 1.541 2.858.843.714 2.029 1.072 3.557 1.072a7.754 7.754 0 003.122-.635c.974-.45 1.752-1.072 2.331-1.866 1.765.873 4.11 1.813 7.034 2.818-.817 1.853-2.305 3.335-4.465 4.446-2.134 1.085-4.927 1.628-8.378 1.628-4.478 0-7.798-1.032-9.958-3.096-2.134-2.091-3.201-4.83-3.201-8.217 0-3.308 1.067-5.995 3.201-8.059C144.027 1.032 147.346 0 151.851 0c2.687 0 5.019.45 6.995 1.35 1.976.9 3.49 2.156 4.544 3.77 1.054 1.589 1.581 3.415 1.581 5.479 0 .688-.027 1.204-.079 1.548h-4.9zm-7.587-6.153c-1.318 0-2.398.251-3.241.754s-1.436 1.191-1.778 2.064h9.326a4.226 4.226 0 00-1.541-2.024c-.712-.53-1.634-.794-2.766-.794zm35.905 5.716c1.185.953 2.094 2.025 2.726 3.216.633 1.19 1.225 2.62 1.778 4.287.554 1.455.949 2.408 1.186 2.858h-9.523c-.08-.185-.238-.768-.475-1.747-.21-.979-.421-1.76-.632-2.342a4.405 4.405 0 00-.948-1.588c-.659-.714-1.397-1.177-2.213-1.389-.817-.212-2.029-.318-3.636-.318v7.384h-8.456c.131-3.017.197-6.63.197-10.837 0-4.208-.066-7.82-.197-10.837h8.456v7.78h.158c3.135-3.149 5.414-5.742 6.837-7.78H194l-9.247 9.25c1.37.581 2.556 1.27 3.557 2.063z" fill="#FFD84E"/></symbol><symbol fill="none" viewBox="0 0 194 35" id="icon-header-logo" xmlns="http://www.w3.org/2000/svg"><path d="M6.123 29.89H2.42c.06.331.208.603.443.813.242.204.583.305 1.022.305.318 0 .618-.06.898-.18.28-.128.504-.305.67-.531.508.248 1.182.516 2.022.802-.234.527-.662.948-1.283 1.265-.614.308-1.417.463-2.409.463-1.287 0-2.242-.294-2.863-.881C.307 31.35 0 30.572 0 29.608c0-.941.307-1.706.92-2.293.614-.587 1.568-.881 2.863-.881.773 0 1.443.128 2.011.384.568.256 1.003.614 1.306 1.073.303.452.455.971.455 1.559 0 .195-.008.342-.023.44H6.123zm-2.18-1.75c-.38 0-.69.071-.932.214a1.17 1.17 0 00-.512.588H5.18a1.204 1.204 0 00-.443-.577c-.204-.15-.47-.225-.795-.225zm13.344 2.518v4.258h-2.352v-2.202h-6.59c.039-.858.057-1.886.057-3.084 0-1.197-.018-2.225-.056-3.083h2.34v4.111h.875v-4.111h2.01v4.111h.864v-4.111h2.34a75.752 75.752 0 00-.056 3.185v.926h.567zm6.92-.768h-3.703c.06.331.208.603.443.813.242.204.583.305 1.022.305.318 0 .617-.06.898-.18.28-.128.503-.305.67-.531.508.248 1.181.516 2.022.802-.235.527-.663.948-1.284 1.265-.613.308-1.416.463-2.408.463-1.288 0-2.242-.294-2.863-.881-.613-.595-.92-1.374-.92-2.338 0-.941.307-1.706.92-2.293.614-.587 1.568-.881 2.863-.881.773 0 1.443.128 2.01.384.569.256 1.004.614 1.307 1.073.303.452.455.971.455 1.559 0 .195-.008.342-.023.44h-1.409zm-2.18-1.75c-.38 0-.69.071-.933.214a1.17 1.17 0 00-.51.588h2.68a1.204 1.204 0 00-.443-.577c-.204-.15-.47-.225-.795-.225zm-1.069-2.022a.714.714 0 01-.522-.215.706.706 0 01-.216-.52c0-.195.072-.364.216-.508a.714.714 0 01.522-.214.7.7 0 01.511.214.693.693 0 01.216.509.706.706 0 01-.216.52.7.7 0 01-.51.214zm1.83 0a.714.714 0 01-.523-.215.706.706 0 01-.216-.52c0-.195.072-.364.216-.508a.714.714 0 01.522-.214.7.7 0 01.512.214.693.693 0 01.215.509.706.706 0 01-.215.52.7.7 0 01-.512.214z" fill="#222"/><path d="M20.193 12.441c1.185.953 2.094 2.025 2.727 3.216.632 1.19 1.225 2.62 1.778 4.287.553 1.456.948 2.408 1.185 2.858H16.36c-.08-.185-.237-.767-.474-1.747-.211-.979-.422-1.76-.633-2.342a4.396 4.396 0 00-.948-1.587c-.659-.715-1.396-1.178-2.213-1.39-.817-.212-2.029-.317-3.635-.317v7.383H0c.132-3.017.198-6.63.198-10.837C.198 7.757.132 4.145 0 1.128h8.457v7.78h.158c3.135-3.149 5.413-5.742 6.836-7.78h10.432l-9.246 9.25c1.37.582 2.555 1.27 3.556 2.063zm33.68-11.313l-.908 2.303A365.313 365.313 0 0145.1 22.802c-1.423 3.176-3.478 5.716-6.165 7.622-2.687 1.931-6.06 2.858-10.116 2.778-.5-2.196-.922-3.916-1.265-5.16a26.639 26.639 0 00-1.264-3.692c1.449.344 2.805.516 4.07.516 2.055 0 3.688-.436 4.9-1.31a179.758 179.758 0 00-3.359-9.13c-1.29-3.255-3.161-7.687-5.611-13.298h9.365a67.36 67.36 0 001.304 4.605 226.89 226.89 0 001.66 5.041c.158.503.408 1.27.75 2.303a50.92 50.92 0 01.87 2.54l1.028-3.136c1.975-5.742 3.148-9.527 3.517-11.353h9.088zm8.04 10.837c.052 1.35.474 2.435 1.264 3.255.817.82 2.015 1.23 3.596 1.23.87 0 1.647-.158 2.332-.476.684-.344 1.317-.846 1.896-1.508 2.24.873 4.86 1.627 7.864 2.263-.87 2.037-2.344 3.625-4.426 4.763-2.055 1.138-4.728 1.707-8.022 1.707-4.4 0-7.653-1.032-9.76-3.096-2.108-2.064-3.161-4.777-3.161-8.138 0-3.36 1.053-6.073 3.16-8.137C58.765 1.763 62.019.73 66.418.73c3.293 0 5.967.57 8.022 1.707 2.082 1.138 3.557 2.726 4.426 4.764-2.344.502-4.966 1.257-7.864 2.262-.58-.661-1.212-1.15-1.896-1.468-.685-.344-1.463-.516-2.332-.516-1.58 0-2.78.41-3.596 1.23-.79.82-1.212 1.905-1.264 3.255zM94.95 23.199c-4.505 0-7.825-1.032-9.959-3.096-2.107-2.09-3.16-4.83-3.16-8.217 0-3.308 1.053-5.994 3.16-8.058C87.125 1.763 90.445.73 94.95.73c3.03 0 5.558.503 7.587 1.509 2.055.979 3.569 2.315 4.544 4.009.975 1.667 1.462 3.546 1.462 5.637 0 3.414-1.133 6.153-3.398 8.217-2.239 2.064-5.638 3.096-10.195 3.096zm.158-6.748c1.712 0 2.99-.41 3.833-1.23.843-.821 1.264-1.92 1.264-3.296 0-1.296-.421-2.355-1.264-3.175-.843-.847-2.12-1.27-3.833-1.27s-2.964.41-3.754 1.23c-.79.82-1.186 1.892-1.186 3.215 0 1.377.395 2.475 1.186 3.295.79.82 2.041 1.23 3.754 1.23zm40.438-15.323c-.132 2.964-.198 6.563-.198 10.797 0 4.208.066 7.807.198 10.798h-8.654l.079-4.327a12.457 12.457 0 01-6.481 1.786c-3.029 0-5.229-.886-6.599-2.66-1.344-1.799-2.015-4.141-2.015-7.026v-2.58c0-3.096-.053-5.359-.158-6.788h8.219c-.132 3.255-.198 5.981-.198 8.178 0 1.482.277 2.567.83 3.255.58.661 1.502.992 2.766.992a4.5 4.5 0 001.897-.437 6.876 6.876 0 001.778-1.23c0-5.637-.039-9.223-.118-10.758h8.654zm24.446 11.75h-12.883c.211 1.165.725 2.117 1.541 2.858.843.715 2.029 1.072 3.557 1.072a7.754 7.754 0 003.122-.635c.974-.45 1.752-1.072 2.331-1.866 1.765.873 4.11 1.813 7.034 2.819-.817 1.852-2.305 3.334-4.465 4.445-2.134 1.085-4.927 1.628-8.378 1.628-4.478 0-7.798-1.032-9.958-3.096-2.134-2.09-3.201-4.83-3.201-8.217 0-3.308 1.067-5.994 3.201-8.058 2.134-2.065 5.453-3.097 9.958-3.097 2.687 0 5.019.45 6.995 1.35 1.976.9 3.49 2.157 4.544 3.771 1.054 1.588 1.581 3.414 1.581 5.478 0 .688-.027 1.204-.079 1.548h-4.9zm-7.587-6.153c-1.318 0-2.398.252-3.241.755-.843.502-1.436 1.19-1.778 2.064h9.326a4.226 4.226 0 00-1.541-2.025c-.712-.529-1.634-.794-2.766-.794zm35.905 5.716c1.185.953 2.094 2.025 2.726 3.216.633 1.19 1.225 2.62 1.778 4.287.554 1.456.949 2.408 1.186 2.858h-9.523c-.08-.185-.238-.767-.475-1.747-.21-.979-.421-1.76-.632-2.342a4.405 4.405 0 00-.948-1.587c-.659-.715-1.397-1.178-2.213-1.39-.817-.212-2.029-.317-3.636-.317v7.383h-8.456c.131-3.017.197-6.63.197-10.837 0-4.208-.066-7.82-.197-10.837h8.456v7.78h.158c3.135-3.149 5.414-5.742 6.837-7.78H194l-9.247 9.25c1.37.582 2.556 1.27 3.557 2.063z" fill="#FFD84E"/></symbol><symbol viewBox="0 0 30 30" id="icon-instagram" xmlns="http://www.w3.org/2000/svg"><path d="M21 7.5a1.5 1.5 0 113 0 1.5 1.5 0 01-3 0z"/><path fill-rule="evenodd" clip-rule="evenodd" d="M15 7.875a7.125 7.125 0 100 14.25 7.125 7.125 0 000-14.25zM10.125 15a4.875 4.875 0 119.75 0 4.875 4.875 0 01-9.75 0z"/><path fill-rule="evenodd" clip-rule="evenodd" d="M22.887 1.25a71.581 71.581 0 00-15.774 0c-3.018.337-5.455 2.714-5.81 5.748a68.882 68.882 0 000 16.004c.355 3.034 2.792 5.411 5.81 5.748 5.2.582 10.575.582 15.774 0 3.018-.337 5.455-2.714 5.81-5.748a68.883 68.883 0 000-16.004c-.355-3.034-2.791-5.411-5.81-5.748zM7.363 3.486a69.331 69.331 0 0115.274 0c1.996.223 3.594 1.797 3.825 3.774a66.631 66.631 0 010 15.48c-.231 1.977-1.83 3.552-3.825 3.775a69.331 69.331 0 01-15.274 0c-1.996-.224-3.594-1.798-3.825-3.774a66.631 66.631 0 010-15.481c.231-1.977 1.83-3.551 3.825-3.774z"/></symbol><symbol fill="none" viewBox="0 0 18 15" id="icon-like" xmlns="http://www.w3.org/2000/svg"><path fill-rule="evenodd" clip-rule="evenodd" d="M.25 5.03C.25 2.33 2.62.25 5.4.25 6.833.25 8.095.922 9 1.792 9.905.922 11.166.25 12.6.25c2.78 0 5.15 2.08 5.15 4.78 0 1.85-.789 3.476-1.882 4.852-1.09 1.372-2.518 2.537-3.885 3.484a13.74 13.74 0 01-1.533.941c-.453.231-.975.443-1.45.443s-.997-.212-1.45-.443a13.79 13.79 0 01-1.533-.941c-1.367-.947-2.794-2.112-3.885-3.484C1.039 8.506.25 6.88.25 5.03zM5.4 1.75c-2.08 0-3.65 1.53-3.65 3.28 0 1.403.596 2.71 1.556 3.918.962 1.21 2.257 2.279 3.565 3.185.495.343.96.635 1.36.838.428.218.676.279.769.279.093 0 .341-.061.77-.28a12.47 12.47 0 001.36-.837c1.307-.906 2.602-1.974 3.564-3.185.96-1.208 1.556-2.515 1.556-3.918 0-1.75-1.57-3.28-3.65-3.28-1.194 0-2.31.713-3.005 1.619a.75.75 0 01-1.19 0C7.71 2.463 6.595 1.75 5.4 1.75z" fill="#FFD84E"/></symbol><symbol viewBox="0 0 31 28" id="icon-telegram" xmlns="http://www.w3.org/2000/svg"><path fill-rule="evenodd" clip-rule="evenodd" d="M6.681 17.03c.066.021.132.037.199.047a477.883 477.883 0 011.267 3.003c.753 1.803 1.513 3.66 1.68 4.193.209.657.428 1.104.668 1.41.124.157.267.295.435.4.085.052.174.095.267.127l.012.004c.48.181.918.106 1.192.014a1.956 1.956 0 00.457-.225l.007-.004 4.24-2.644L22 27.109c.072.055.151.102.235.138.588.257 1.158.347 1.694.273a2.59 2.59 0 001.275-.55 2.989 2.989 0 00.846-1.093l.014-.033.005-.012.003-.006v-.002l.002-.003a1.12 1.12 0 00.059-.199l4.47-22.538c.014-.072.021-.145.021-.219 0-.66-.248-1.287-.833-1.668-.5-.326-1.057-.34-1.409-.313a4.34 4.34 0 00-.965.197 5.194 5.194 0 00-.39.142l-.016.007L1.94 11.065l-.003.001a2.76 2.76 0 00-.25.103 3.783 3.783 0 00-.57.318c-.34.233-1.125.873-.993 1.928.106.841.682 1.358 1.034 1.607.192.136.376.234.51.297.061.03.19.082.245.105l.014.005 4.753 1.6zM27.89 3.301l-.003.001-.038.016-25.101 9.847-.04.014-.014.006a1.505 1.505 0 00-.137.06 1.34 1.34 0 00.13.064L7.4 14.896c.087.03.167.068.24.114l15.566-9.112.015-.008a2.461 2.461 0 01.186-.102c.108-.055.28-.137.475-.197.136-.042.535-.16.968-.021a1.28 1.28 0 01.882 1.034c.061.224.051.445.003.636-.103.412-.392.733-.655.979-.226.21-3.144 3.024-6.023 5.802l-3.918 3.782-.698.673 8.808 6.753c.202.072.322.069.377.061a.342.342 0 00.175-.078.744.744 0 00.155-.18l.002-.002 4.336-21.86a2.785 2.785 0 00-.401.13h-.003zm-12.692 18.59l-1.757-1.347-.426 2.709 2.183-1.361zm-3.37-4.02l1.748-1.687c1.062-1.025 2.483-2.397 3.92-3.782l1.458-1.408-9.78 5.726.052.123c.267.63.626 1.48.998 2.369.277.664.568 1.364.832 2.011l.425-2.7c.04-.26.168-.486.348-.652z"/></symbol><symbol viewBox="0 0 16 18" id="icon-user" xmlns="http://www.w3.org/2000/svg"><path fill-rule="evenodd" clip-rule="evenodd" d="M3.75 4.5a4.25 4.25 0 118.5 0 4.25 4.25 0 01-8.5 0zM8 1.75a2.75 2.75 0 100 5.5 2.75 2.75 0 000-5.5zm-4 10A2.25 2.25 0 001.75 14v1.188c0 .018.013.034.031.037 4.119.672 8.32.672 12.438 0a.037.037 0 00.031-.037V14A2.25 2.25 0 0012 11.75h-.34a.253.253 0 00-.079.012l-.865.283a8.751 8.751 0 01-5.432 0l-.866-.283a.252.252 0 00-.077-.012H4zM.25 14A3.75 3.75 0 014 10.25h.34c.185 0 .369.03.544.086l.866.283a7.251 7.251 0 004.5 0l.866-.283c.175-.057.359-.086.543-.086H12A3.75 3.75 0 0115.75 14v1.188c0 .753-.546 1.396-1.29 1.517a40.095 40.095 0 01-12.92 0 1.537 1.537 0 01-1.29-1.517V14z"/></symbol><symbol fill="none" viewBox="0 0 20 14" id="icon-views" xmlns="http://www.w3.org/2000/svg"><path fill-rule="evenodd" clip-rule="evenodd" d="M6.25 7a3.75 3.75 0 117.5 0 3.75 3.75 0 01-7.5 0zM10 4.75a2.25 2.25 0 100 4.5 2.25 2.25 0 000-4.5z" fill="#FFD84E"/><path fill-rule="evenodd" clip-rule="evenodd" d="M2.323 5.646C1.904 6.25 1.75 6.723 1.75 7c0 .277.154.75.573 1.354.406.583 1.008 1.216 1.77 1.801C5.62 11.327 7.713 12.25 10 12.25s4.38-.923 5.907-2.095c.762-.585 1.364-1.218 1.77-1.801.419-.604.573-1.077.573-1.354 0-.277-.154-.75-.573-1.354-.406-.583-1.008-1.216-1.77-1.801C14.38 2.673 12.287 1.75 10 1.75s-4.38.923-5.907 2.095c-.762.585-1.364 1.218-1.77 1.801zm.856-2.991C4.91 1.327 7.316.25 10 .25s5.09 1.077 6.82 2.405c.867.665 1.583 1.407 2.089 2.136.492.709.841 1.486.841 2.209 0 .723-.35 1.5-.841 2.209-.506.729-1.222 1.47-2.088 2.136-1.73 1.328-4.137 2.405-6.821 2.405s-5.09-1.077-6.82-2.405c-.867-.665-1.583-1.407-2.089-2.136C.6 8.5.25 7.723.25 7c0-.723.35-1.5.841-2.209.506-.729 1.222-1.47 2.088-2.136z" fill="#FFD84E"/></symbol><symbol viewBox="0 0 36 23" id="icon-vk" xmlns="http://www.w3.org/2000/svg"><path fill-rule="evenodd" clip-rule="evenodd" d="M35.107 18.297a17.09 17.09 0 00-3.183-4.445 23.401 23.401 0 00-1.359-1.41l-.056-.055c-.208-.204-.38-.372-.52-.518a44.583 44.583 0 004.515-7.856l.05-.111.035-.117c.163-.545.35-1.58-.312-2.515C33.594.303 32.5.129 31.767.129h-3.37a3.348 3.348 0 00-3.287 2.164 26.27 26.27 0 01-2.708 4.906v-3.95c0-.51-.048-1.365-.595-2.086C21.153.3 20.207.13 19.55.13h-5.348a2.72 2.72 0 00-2.776 2.524l-.005.067v.067c0 .728.29 1.265.52 1.603.103.151.213.29.283.376l.016.02c.074.093.124.155.174.222.13.179.32.454.373 1.165v2.209c-.922-1.516-1.895-3.533-2.627-5.687l-.011-.033-.012-.033C9.953 2.152 9.66 1.456 9.074.924 8.39.302 7.58.129 6.843.129h-3.42c-.745 0-1.644.174-2.314.881-.66.695-.734 1.529-.734 1.972v.2l.042.195a29.145 29.145 0 005.702 12.03 15.227 15.227 0 0011.838 7.038l.063.004h.063c1.089 0 2.224-.094 3.077-.663 1.152-.767 1.242-1.946 1.242-2.533v-1.707c.296.24.662.56 1.11.993.543.543.975 1.013 1.346 1.424l.198.22v.001c.289.32.572.636.83.895.324.326.723.685 1.226.95a3.613 3.613 0 001.72.418h3.423c.721 0 1.755-.171 2.482-1.014.793-.918.732-2.044.483-2.854l-.045-.145-.068-.137zm-8.578.159c-.386-.427-.85-.933-1.437-1.52l-.005-.005c-2.034-1.961-2.985-2.303-3.657-2.303-.357 0-.753.04-1.01.36-.12.15-.184.333-.22.523a3.64 3.64 0 00-.048.665v3.077c0 .382-.063.543-.24.66-.235.158-.738.285-1.816.286a12.976 12.976 0 01-10.128-6.08l-.012-.018-.014-.018a26.896 26.896 0 01-5.317-11.14c.005-.196.048-.312.117-.385.07-.075.243-.18.68-.18h3.42c.381 0 .578.083.72.212.16.146.3.393.469.836.84 2.469 1.975 4.778 3.05 6.475.537.849 1.066 1.555 1.542 2.054.238.25.471.456.694.603.215.142.46.254.71.254.133 0 .288-.014.437-.08a.786.786 0 00.373-.348c.156-.281.199-.697.199-1.242V6.096l-.001-.011c-.078-1.228-.448-1.918-.81-2.41A6.958 6.958 0 0014 3.386l-.018-.023a4.063 4.063 0 01-.184-.241c-.09-.132-.124-.223-.127-.322a.47.47 0 01.486-.421h5.392c.309 0 .413.075.466.144.073.098.137.3.137.726v6.793c0 .807.372 1.353.912 1.353.622 0 1.07-.377 1.853-1.16l.013-.014.012-.014a28.522 28.522 0 004.26-7.083l.007-.019a1.098 1.098 0 011.11-.727h3.448c.469 0 .623.12.673.19.053.075.09.236 0 .551a42.325 42.325 0 01-4.543 7.8l-.011.018c-.174.265-.364.559-.392.896-.03.362.127.691.402 1.044.2.296.611.699 1.03 1.108l.039.039c.438.429.913.893 1.294 1.343l.01.012.011.011a14.841 14.841 0 012.798 3.88c.114.39.044.59-.045.694-.104.12-.337.233-.778.233h-3.422c-.267 0-.474-.053-.67-.157-.206-.109-.417-.281-.682-.547a22.415 22.415 0 01-.73-.79l-.222-.247z"/></symbol><symbol viewBox="0 0 32 24" id="icon-youtube" xmlns="http://www.w3.org/2000/svg"><path fill-rule="evenodd" clip-rule="evenodd" d="M13.579 6.535a1.125 1.125 0 00-1.704.965v9a1.125 1.125 0 001.704.965l7.5-4.5a1.125 1.125 0 000-1.93l-7.5-4.5zM18.313 12l-4.188 2.513V9.487L18.313 12z"/><path fill-rule="evenodd" clip-rule="evenodd" d="M23.546.962a96.748 96.748 0 00-15.092 0l-3.361.263a4.463 4.463 0 00-4.054 3.714 42.848 42.848 0 000 14.122 4.463 4.463 0 004.054 3.714l3.361.263a96.741 96.741 0 0015.092 0l3.361-.263a4.463 4.463 0 004.054-3.714 42.845 42.845 0 000-14.122 4.463 4.463 0 00-4.054-3.714L23.546.962zM8.63 3.205a94.499 94.499 0 0114.74 0l3.361.263a2.213 2.213 0 012.01 1.841 40.6 40.6 0 010 13.382 2.213 2.213 0 01-2.01 1.841l-3.36.263a94.506 94.506 0 01-14.741 0l-3.362-.263a2.213 2.213 0 01-2.01-1.841 40.61 40.61 0 010-13.382 2.213 2.213 0 012.01-1.84l3.362-.264z"/></symbol></svg>