<svg width="125" height="127" fill="none" xmlns="http://www.w3.org/2000/svg"><path d="M74.583 98.823a5.594 5.594 0 015.594 5.594v14.916a5.594 5.594 0 11-11.187 0v-14.916a5.594 5.594 0 015.593-5.594zm35.427 5.594a5.593 5.593 0 10-11.187 0v14.916a5.593 5.593 0 1011.187 0v-14.916z" fill="#FFD84E"/><path fill-rule="evenodd" clip-rule="evenodd" d="M71.97 25.172a5.594 5.594 0 00-9.69-5.594L47.365 45.415a5.66 5.66 0 00-.518 1.2H44.75c-11.328 0-20.51 9.182-20.51 20.51 0 6.408 2.938 12.13 7.54 15.89l4.975 34.194 3.332 15.612a22.74 22.74 0 0019.105 17.776 219.913 219.913 0 0060.616 0 22.74 22.74 0 0019.105-17.776l3.332-15.612 4.974-34.194c4.603-3.76 7.541-9.482 7.541-15.89 0-11.328-9.182-20.51-20.51-20.51h-2.096a5.603 5.603 0 00-.518-1.2l-14.917-25.837a5.593 5.593 0 10-9.688 5.594l12.38 21.443H59.589l12.38-21.443zm63.275 62.44a20.75 20.75 0 01-.995.023h-89.5c-.334 0-.666-.008-.995-.023l4.018 27.622 3.255 15.252a11.553 11.553 0 009.706 9.031 208.776 208.776 0 0057.532 0 11.552 11.552 0 009.706-9.031l3.255-15.252 4.018-27.622zM35.427 67.125a9.323 9.323 0 019.323-9.323h89.5a9.323 9.323 0 110 18.646h-89.5a9.323 9.323 0 01-9.323-9.323z" fill="#FFD84E"/></svg>