<svg width="148" height="133" fill="none" xmlns="http://www.w3.org/2000/svg"><path d="M17.065 103.824c.046.19.081.316.136.507l-.443.031c-.555.806-1.093 1.636-1.678 2.444a46.774 46.774 0 00-2.312 3.284c-.58.972-1.5 1.914-1.865 2.923-.363 1.009-1.467 1.6-1.564 2.567-.974.775-.999 1.837-1.67 2.707-.194.251-.258.53-.596.768-.339.237-.29.3-.32 1.099l-.359.292c-.1.066-.29.153-.296.193.023 1.026-1.385 1.677-1.523 2.653-.012.091.029.225-.024.265-1.501 1.2-1.78 2.868-2.938 4.19-.46.512-.378 1.048-.768 1.533-.172.212-.301.439-.467.684.09.227.145.47.167.724a4.943 4.943 0 01-.26.972c.995-.259 1.618-.973 2.497-1.143l-1.69 1.179.089.364c2.241-.793 2.302-.761 4.114-2.929 1.283-1.529 2.822-2.985 3.615-4.724 1.171-1.081 1.796-2.397 2.688-3.599 1.211-1.637 2.265-3.344 3.444-4.994a335.46 335.46 0 014.556-6.203c1.434-1.929 3.003-3.786 4.598-5.641 1.048-1.221 2.04-2.513 3.11-3.76a360.568 360.568 0 013.206-3.685c.733-.93 1.54-1.82 2.411-2.665.967-.835 1.392-1.908 2.348-2.712.596-.511.966-1.221 1.743-1.582.1-.066.257-.12.302-.196.728-1.317 2.085-2.25 3.123-3.376 1.039-1.126 2.225-2.293 3.347-3.402a24.16 24.16 0 001.89-1.868c.66-.815 1.622-1.379 2.349-2.166a43.2 43.2 0 012.904-2.764 121.22 121.22 0 002.86-2.627c1.819-1.733 3.846-3.298 5.53-5.151.466-.505 1.086-.776 1.56-1.328.638-.74 1.83-1.222 2.356-1.974.526-.751 1.784-1.014 2.102-1.958 1.594-.986 2.755-2.435 4.319-3.467.45-.344.87-.72 1.258-1.119.462-.413.922-.83 1.4-1.23.48-.4 1.113-.519 1.245-1.14.853-.44 1.44-1.172 2.182-1.706.954-.684 1.638-1.657 2.76-2.148.254-.824 1.466-.95 1.778-1.747.051-.14.386-.25.56-.363a5.749 5.749 0 001.588-1.322c.368-.506 1.177-.638 1.574-1.33.223-.4.957-.668 1.444-.984l.284-.779c1.11-.124 1.615-.845 2.028-1.672.289.03.608-.035.902-.184.295-.148.548-.372.716-.633a4.26 4.26 0 011.328-1.1c1.387-.9 2.496-2.124 3.975-2.946.38-.21.598-.739.868-1.104.244-.058.488-.134.728-.229.693-.306 1.126-.932 1.875-1.263a4.788 4.788 0 001.628-1.43c.241-.3.444-.211.589-.318.787-.587 1.844-.838 2.358-1.79.13-.239.598-.388.9-.584l6.563-4.256a6.963 6.963 0 001.4-1.05c.384-.422.92-.205 1.263-.653a7.24 7.24 0 01.888-.832c.438-.169.866-.37 1.28-.604 1.636-1.031 3.305-2.037 4.878-3.164 1.945-1.41 4.121-2.363 6.16-3.584 1.47-.882 3.175-1.363 4.898-2.07l.963-1.082.42.007.358-1.357-2.745 1.12.165-.887 1.573-1.02.298-.83-1.524.114.545-.626c-.231-.749-1.036-.768-1.801-.825l.1-.321-1.669-.107c-.356.332-.598 1.054-1.426 1.097l.169-.556-1.684 1.407-.171-.138.824-.773-1.361.288.001.666-1.044.742-.065-.945-.845.548c-1.61 1.193-3.572 1.852-5.201 3.016-1.628 1.163-3.457 2.242-5.15 3.405-.369.24-.868-.032-1.09.564-.071.183-.734.316-.8.519-.255.665-.778.25-1.162.527-.657.48-1.088 1.123-1.829 1.574-2.223 1.352-4.397 2.792-6.557 4.252-.822.533-1.526 1.234-2.33 1.808-.803.575-1.678 1.088-2.51 1.705 1.419-.551 4.337-2.485 5.572-3.482l-.581.597.309.031c-.912.592-1.805 1.224-2.736 1.774-1.347.78-2.259 2.06-3.68 2.727-.261.597-1.064.809-1.363 1.252-.467.696-1.357.535-1.827 1.262-.358.547-1.162.95-1.899 1.517l-.246.523.195.088 4.241-3.257h.496l-.225.628-.91-.106c.09.316.166.612.25.909l-.445.003-.564.127.136.436-1.679 1.582-.697-.315-1.28 1.425-.716.125-.316 1.395-.515-.029-.627.83.679.034.212-.476 1.077-.27-.085-.588 1.54-.523c.36-.738 1.324-.947 2.014-1.573l.318-.8c.7.14 1.126-.559 1.804-.79l.345.436-.691.032-.132.852-.957-.093-.73 1.01c-.658-.038-.973.428-1.35.934-.371.422-.779.821-1.217 1.194l-.062.933-.857-.45-1.291 1.058c-.488.306-.928.68-1.294 1.1-.333.562-1.01.203-1.318.825-.203.418-.807.762-1.233 1.133l-1.162-.293 1.496-.834.156-.38-.412-.078.092-.37c-.078-.008-.197-.056-.25-.015-.428.307-.835.66-1.271.955-.437.295-1.184.53-1.41.914-.36.567-.949.693-1.39 1.139l-.36.918-1.08.106c1.172-1.552 2.739-2.64 4.325-4.049a7.344 7.344 0 00-2.114 1.24c-.328.267-.517.68-.975.943-.35.196-.693.705-.958.716-.657.021-.497.542-.807.737-.421.24-.829.505-1.22.791-.442.346-.821.765-1.264 1.123-.399.316-.777.653-1.132 1.008a6.062 6.062 0 01-2.328 1.314l1.673-1.24c-1.718.46-2.427 1.806-3.653 2.453-.032.366-.115.74-.248 1.112-.082.178-.459.297-1.018.66l.669-.898c-.103.002-.23-.035-.284.006-.6.448-1.305.722-1.75 1.415-.324.513-1.133.705-1.588 1.31-.554.71-1.51 1.222-2.233 1.87-.723.647-1.457 1.242-2.141 1.911-.998.981-2.152 1.848-3.158 2.828-1.007.98-2.304 1.69-3.092 2.844-.41.587-1.14.876-1.65 1.457a59.987 59.987 0 01-3.628 3.47 15.6 15.6 0 01-1.963 1.868 3.134 3.134 0 00-1.003.988c-.24.387-.362.799-.35 1.186l-.604-.262-.184.423-.298-.003c-.372.49-.815.947-1.313 1.351-.66.428-.84 1.003-1.619 1.686-1.486.666-2.206 2.478-3.876 3.567l.388.938-.783-.277a13.546 13.546 0 00-2.81 3.208l.206.313a3.41 3.41 0 00-.694.158c-.28.157-.549.332-.806.523-.057.215-.131.466-.222.739l-1.343.87.085.6-.697.095-.473 1.098c.132.272.214.456.381.806l-1.306-.343a20.594 20.594 0 01-2.227 2.592c-.82.705-1.212 1.709-2.028 2.505-.443.443-.593 1.123-1.314 1.447-.068.586-.602.986-.998 1.451-.486.583-1.37.989-1.525 1.685-.155.695-1.196 1.031-1.137 1.749-.591.46-.866 1.108-1.387 1.589a5.07 5.07 0 00-1.23 1.696c-.084.197-.408.372-.71.628zm58.991-51.743c-.458.226-.932.33-1.123.574a15.752 15.752 0 01-2.231 2.041c-.93.818-2.06 1.491-2.92 2.305-1.187 1.12-2.45 2.183-3.685 3.216-1.236 1.034-2.425 2.257-3.807 3.225a12.424 12.424 0 00-1.61 1.639c-.068.043-.204.055-.34.09l-.19-.347c.775-.628 1.681-1.168 2.246-1.874.565-.705 1.365-.885 1.7-1.43.386-.625 1.242-.805 1.503-1.355.26-.549 1.138-.696 1.412-1.236.358-.667 1.22-.791 1.613-1.297.56-.713 1.589-1.03 1.958-1.644.505-.833 1.716-.935 1.976-1.847.894-.39 1.431-1.16 2.16-1.727a18.813 18.813 0 002.43-1.946c.573-.633 1.424-.965 1.838-1.536.413-.572 1.002-.698 1.275-1.119.395-.474.88-.893 1.423-1.232.407-.327.802-.673 1.185-1.036a9.509 9.509 0 012.285-1.851c.213-.102.56-.267.594-.385.153-.747 1.125-.8 1.477-1.392.352-.592 1.21-.903 1.811-1.371.202-.13.523-.25.599-.388.243-.563.932-.742 1.233-1.145.425-.567 1.02-.537 1.463-.907a73.175 73.175 0 012.008-1.63c.577-.457 1.162-.902 1.82-1.406l.262-.003.683-.949c.344-.05.69-.181 1.003-.379a2.61 2.61 0 00.773-.743c.437-.658 1.141-.692 1.78-.934.64-.242.708-1.215 1.736-1.245.515-.019 1.179-.634 1.85-1.021-.632.956-1.58 1.767-2.676 2.288-1.072.53-1.643 1.66-2.831 1.991-.35.68-1.064.81-1.714.95l-.456 1.052-1.141.342c-.296.519-.637 1.007-1.382.896-.094.269-.185.518-.284.779-1.091.767-2.402 1.42-3.342 2.489a8.906 8.906 0 01-1.393 1.23c-.943.69-1.9 1.334-2.808 2.089-.907.755-1.834 1.784-3.03 2.38-.195.092-.309.416-.466.649-.192 0-.398-.058-.496.012a71.654 71.654 0 00-2.324 1.78c-.123.08-.133.283-.2.434l-.546-.015-.895 1.234c-.055 0-.114-.027-.158-.01-.732.332-1.108 1.081-1.87 1.391-.151.11-.195.347-.178.324z" fill="#FFD84E"/><path d="M147.644 7.528c-.13-.064-.425-.11-.43-.226-.029-1.254-.954-1.916-1.753-2.653-.595-.663-1.378-1.168-2.3-1.482-1.823-.436-3.408-1.395-5.67-.898-.527-.688-1.848.324-2.372-.371-1.252.294-2.335-.026-3.519.033a25.17 25.17 0 01-2.219.053 4.32 4.32 0 00-1.041.324l-.968-.425-1.842.25c-.13-.197-.331-.429-.527-.688l-.653.22c-.583-.252.118-.534.209-.807-.768-.305-1.693-.354-2.643-.141l-.952 1.86 1.005 1.52-.305.905c.597.636.785 1.573 1.728 1.997.452.2.792.569 1.391.555.384-.011.542.457 1.115.115.123-.08.488.279.768.448a5.115 5.115 0 001.896.317c1.514.205 3.074.3 4.667.287 1.573-.038 3.114.116 4.773-.216a7.655 7.655 0 011.425-.02c.468-.006.953-.023 1.554-.068l-1.317 1.634a8.609 8.609 0 01-.477-.286c-1.271.955-2.046 2.285-3.296 3.369l.336.508-2.553 2.655c-.342.365-1.017.154-1.315.853l.764-.187c-.799.376-.808 1.714-2.137 1.386-.411 1.457-2.421 2.201-2.574 3.722l-.476-.006a23.724 23.724 0 01-1.932 2.168c-.756.681-.59 1.525-1.504 2.356a6.226 6.226 0 00-1.599 1.178c-.46.47-.823.999-1.065 1.55.069.418.133.805.205 1.217l.469.153-.284.78 1.52-.338c-.102.269-.191.522-.304.834l1.109-.184c.247-.957 1.484-1.177 2.153-1.991.916-1.19 2.271-2.139 3.376-3.236 1.292-1.285 2.513-2.618 3.792-3.935 1.336-1.39 2.671-2.78 4.098-4.115 1.169-1.097 2.092-2.374 3.319-3.443.178-.71 1.262-.86 1.442-1.566 1.177-.639 1.746-1.882 2.867-2.615.224-.145.363-.408.573-.586.91-.762 1.74-1.586 1.473-2.764z" fill="#FFD84E"/></svg>