<svg width="127" height="127" fill="none" xmlns="http://www.w3.org/2000/svg"><path fill-rule="evenodd" clip-rule="evenodd" d="M82.143 27.228c5.283-9.105 18.431-9.105 23.714 0l16.179 27.881a9.79 9.79 0 007.006 4.768l26.866 4.058c11.711 1.769 15.819 16.555 6.698 24.11l-19.574 16.218a9.79 9.79 0 00-3.372 9.372l5.483 28.795c2.148 11.279-9.693 20.043-19.853 14.694l-26.728-14.073a9.792 9.792 0 00-9.124-.001l-26.727 14.074c-10.16 5.349-22.001-3.415-19.853-14.694l5.483-28.795a9.792 9.792 0 00-3.372-9.372L25.394 88.045c-9.12-7.555-5.012-22.341 6.698-24.11l26.866-4.058a9.792 9.792 0 007.007-4.768l16.178-27.881zm13.551 5.897c-.755-1.3-2.633-1.3-3.388 0L76.128 61.007a21.542 21.542 0 01-15.415 10.488l-26.866 4.058c-1.673.253-2.26 2.365-.957 3.444l19.575 16.218a21.543 21.543 0 017.418 20.618L54.4 144.628c-.307 1.611 1.385 2.863 2.836 2.099l26.728-14.073a21.541 21.541 0 0120.073 0l26.727 14.073c1.452.764 3.143-.488 2.836-2.099l-5.483-28.795a21.544 21.544 0 017.418-20.618l19.575-16.218c1.303-1.08.716-3.191-.957-3.444l-26.865-4.058a21.54 21.54 0 01-15.415-10.488L95.694 33.125z" fill="#FFD84E"/></svg>