<svg width="125" height="127" fill="none" xmlns="http://www.w3.org/2000/svg"><path d="M96.156 46.792a5.656 5.656 0 10-11.312 0V84.5a5.656 5.656 0 002.658 4.796l22.625 14.141a5.656 5.656 0 007.794-1.799 5.655 5.655 0 00-1.798-7.794L96.156 81.365V46.792z" fill="#FFD84E"/><path fill-rule="evenodd" clip-rule="evenodd" d="M90.5 18.51c-36.445 0-65.99 29.545-65.99 65.99 0 36.445 29.545 65.99 65.99 65.99 36.445 0 65.99-29.545 65.99-65.99 0-36.445-29.545-65.99-65.99-65.99zM35.823 84.5c0-30.197 24.48-54.677 54.677-54.677s54.677 24.48 54.677 54.677-24.48 54.677-54.677 54.677-54.677-24.48-54.677-54.677z" fill="#FFD84E"/></svg>